<?xml version="1.0" standalone="no"?>
<!DOCTYPE svg PUBLIC "-//W3C//DTD SVG 20010904//EN"
 "http://www.w3.org/TR/2001/REC-SVG-20010904/DTD/svg10.dtd">
<svg version="1.0" xmlns="http://www.w3.org/2000/svg"
 width="896.000000pt" height="896.000000pt" viewBox="0 0 896.000000 896.000000"
 preserveAspectRatio="xMidYMid meet">
<metadata>
Created by potrace 1.14, written by Peter Selinger 2001-2017
</metadata>
<g transform="translate(0.000000,896.000000) scale(0.100000,-0.100000)"
fill="#000000" stroke="none">
<path d="M4740 8704 c0 -5 -46 -10 -102 -10 -57 -1 -209 -4 -338 -8 -129 -4
-241 -7 -247 -6 -27 0 -41 0 -150 -3 -62 -2 -114 -5 -117 -8 -5 -5 -65 -137
-67 -147 -1 -4 -11 -25 -22 -47 -12 -22 -22 -42 -22 -45 -3 -10 -24 -57 -64
-143 -23 -49 -41 -90 -41 -92 0 -2 -20 -46 -44 -97 -60 -128 -86 -186 -86
-191 0 -3 -18 -45 -41 -94 -22 -48 -48 -104 -56 -123 -8 -19 -28 -62 -43 -95
-56 -123 -122 -270 -125 -280 -1 -5 -20 -48 -42 -95 -73 -155 -87 -185 -89
-195 -6 -30 -17 -55 -25 -55 -5 0 -9 -5 -9 -11 0 -5 -9 -29 -19 -52 -11 -23
-38 -85 -61 -137 -23 -52 -48 -108 -56 -124 -8 -16 -14 -35 -14 -43 0 -7 -4
-13 -10 -13 -5 0 -10 -4 -10 -10 0 -11 -53 -132 -77 -175 -10 -16 -16 -31 -15
-32 1 -2 -8 -24 -20 -50 -12 -27 -22 -50 -23 -53 -1 -3 -10 -23 -20 -45 -10
-22 -20 -47 -21 -55 -2 -8 -8 -16 -13 -18 -6 -2 -11 -10 -11 -18 0 -8 -11 -37
-25 -64 -14 -27 -25 -56 -25 -63 0 -8 -7 -20 -15 -27 -8 -7 -15 -18 -15 -26 0
-12 -15 -46 -111 -252 -22 -46 -39 -85 -39 -87 0 -3 -11 -28 -24 -57 -104
-227 -146 -324 -146 -335 0 -7 -4 -13 -8 -13 -6 0 -31 -54 -37 -80 -1 -3 -15
-34 -32 -70 -17 -36 -38 -81 -46 -100 -14 -32 -31 -69 -99 -220 -14 -30 -35
-77 -47 -105 -33 -74 -46 -102 -83 -185 -19 -41 -43 -95 -53 -120 -11 -25 -24
-48 -30 -52 -5 -4 -7 -8 -3 -8 5 0 -81 -199 -142 -326 -11 -23 -20 -46 -20
-53 0 -6 -4 -11 -8 -11 -5 0 -9 -6 -9 -12 0 -7 -16 -44 -34 -83 -18 -38 -34
-72 -34 -75 -3 -9 -36 -83 -65 -145 -15 -33 -47 -105 -71 -160 -24 -55 -49
-109 -56 -120 -7 -11 -13 -26 -13 -34 0 -8 -7 -22 -16 -32 -8 -9 -16 -26 -17
-38 -1 -11 -5 -21 -9 -21 -4 0 -8 -9 -8 -20 0 -11 -4 -20 -10 -20 -5 0 -9 -3
-8 -7 2 -9 -7 -31 -57 -138 -48 -104 -68 -149 -70 -155 -1 -3 -8 -21 -17 -40
-9 -19 -37 -82 -63 -140 -25 -58 -57 -127 -70 -155 -13 -27 -42 -93 -66 -145
-23 -52 -51 -115 -62 -140 -12 -25 -22 -47 -22 -50 -1 -3 -13 -30 -27 -60 -14
-30 -42 -93 -63 -140 -21 -47 -55 -122 -77 -168 -21 -46 -38 -85 -38 -87 0 -2
-18 -43 -41 -92 -42 -90 -62 -134 -63 -143 -1 -3 -11 -25 -23 -50 -12 -25 -33
-70 -46 -100 -13 -30 -33 -75 -45 -100 -81 -178 -172 -381 -172 -385 0 -2 -17
-41 -39 -87 -34 -75 -78 -170 -142 -313 -12 -27 -35 -78 -50 -112 -15 -34 -25
-64 -21 -66 4 -2 324 -3 711 -3 615 1 705 3 712 16 5 8 18 38 29 65 11 28 25
58 30 67 6 10 10 25 10 33 0 8 4 15 8 15 5 0 9 6 9 13 0 6 13 39 28 72 16 33
30 65 31 70 3 11 131 309 169 391 14 30 25 57 25 60 0 3 11 30 25 60 14 30 37
82 51 117 31 73 59 139 82 187 8 19 16 37 17 40 1 3 9 22 18 44 9 21 17 40 17
42 0 3 37 84 86 192 13 29 24 55 24 58 0 3 6 20 14 37 42 93 69 154 77 175 6
15 17 22 36 22 16 1 354 3 753 6 399 2 1069 7 1490 9 421 3 770 6 775 6 6 0
35 -1 66 -2 31 -1 62 2 69 6 9 5 11 4 6 -3 -5 -9 -1 -9 17 -3 13 5 30 5 37 1
8 -5 18 -6 23 -3 5 3 173 6 374 7 l366 2 24 -56 c14 -30 34 -75 46 -100 12
-25 21 -47 22 -50 0 -3 8 -21 17 -40 9 -19 42 -93 73 -165 58 -132 113 -257
145 -330 10 -22 18 -42 18 -45 0 -3 12 -28 26 -56 14 -29 26 -55 26 -58 0 -3
16 -38 35 -78 20 -40 35 -73 34 -73 -1 0 7 -20 19 -45 28 -63 55 -124 57 -130
1 -3 8 -21 17 -40 8 -19 41 -93 73 -165 31 -71 70 -158 86 -193 16 -35 29 -65
29 -67 0 -3 11 -29 25 -58 l26 -54 984 1 c542 0 985 2 985 4 0 3 -31 71 -82
182 -17 36 -39 83 -48 105 -26 59 -79 174 -100 220 -39 82 -100 217 -100 220
0 1 -23 51 -50 109 -27 58 -50 108 -50 111 0 3 -16 40 -36 82 -20 43 -47 101
-59 128 -12 28 -36 79 -53 115 -54 118 -66 145 -67 150 -1 3 -14 32 -30 65
-16 33 -30 62 -30 65 -1 3 -13 30 -27 60 -24 52 -63 137 -93 205 -7 17 -34 74
-59 128 -25 55 -46 100 -46 102 0 2 -13 32 -29 67 -16 35 -45 97 -64 138 -19
41 -45 98 -58 125 -13 28 -24 52 -24 55 -1 3 -11 25 -22 50 -11 25 -55 122
-98 215 -80 177 -111 246 -150 330 -13 28 -33 73 -46 100 -52 118 -206 457
-268 588 -22 48 -41 90 -41 92 0 3 -15 35 -32 72 -18 38 -33 70 -34 73 -1 5
-27 64 -81 180 -20 41 -76 165 -125 275 -50 110 -106 234 -125 275 -19 41 -63
138 -98 215 -104 232 -126 278 -145 317 -10 20 -17 38 -14 41 2 2 -2 10 -11
17 -8 7 -15 18 -15 26 0 7 -22 59 -48 116 -27 57 -77 166 -112 243 -35 77 -70
154 -79 170 -8 17 -16 35 -17 40 -1 6 -23 55 -49 110 -26 55 -76 164 -111 242
-35 78 -81 180 -102 226 -22 46 -45 100 -53 120 -7 20 -16 37 -20 37 -4 0 -9
10 -13 23 -3 12 -22 58 -43 102 -20 44 -37 82 -38 85 -1 6 -50 111 -76 163
-10 20 -16 37 -13 37 4 0 2 6 -4 13 -5 6 -30 57 -55 112 -25 55 -59 132 -77
170 -18 39 -64 140 -102 225 -39 85 -86 189 -105 230 -34 72 -55 119 -58 130
-1 3 -16 37 -34 75 -18 39 -53 115 -78 170 -25 55 -56 124 -69 153 -13 29 -24
56 -24 60 0 5 -6 14 -12 21 -7 6 -13 15 -14 19 -1 4 -7 21 -13 39 l-13 32
-171 -5 c-94 -2 -173 -7 -175 -9 -3 -3 -11 0 -19 6 -7 6 -13 8 -13 3z m-420
-2174 c45 -102 93 -207 105 -235 13 -27 36 -79 53 -115 16 -36 41 -92 57 -125
15 -33 34 -78 43 -100 8 -22 22 -50 30 -62 7 -12 13 -23 12 -25 0 -2 8 -23 18
-48 11 -25 22 -52 26 -60 3 -8 10 -22 15 -30 5 -8 13 -26 19 -40 6 -14 21 -50
35 -80 14 -30 35 -77 47 -105 12 -27 35 -77 50 -110 54 -118 80 -176 80 -179
0 -2 18 -44 40 -93 23 -48 45 -97 50 -108 5 -11 22 -49 38 -85 17 -36 69 -153
117 -260 48 -107 100 -223 116 -257 16 -34 29 -64 29 -66 0 -2 19 -44 42 -93
23 -49 40 -89 38 -89 -2 0 3 -13 13 -30 19 -34 107 -225 107 -232 0 -5 26 -64
82 -183 22 -47 41 -89 42 -95 1 -5 14 -34 29 -62 14 -29 24 -53 21 -53 -3 0 2
-10 10 -22 25 -35 19 -46 -23 -50 -22 -2 -37 1 -34 6 4 5 1 6 -6 2 -9 -6 -782
-10 -941 -5 -15 0 -192 -1 -279 -2 -25 0 -49 -3 -54 -6 -6 -4 -7 -1 -2 7 5 9
4 11 -4 6 -9 -6 -360 -8 -721 -5 -8 0 -67 -1 -132 -2 -64 -1 -121 2 -127 5 -6
4 -11 4 -11 -1 0 -9 -548 -8 -558 1 -3 3 0 16 6 29 10 19 132 299 168 384 8
18 13 35 12 37 -2 2 6 13 16 25 11 12 16 21 13 21 -3 0 9 33 28 73 63 138 82
182 96 220 7 20 17 37 23 37 5 0 6 3 3 6 -4 4 0 19 7 33 14 26 59 127 181 411
37 85 71 162 76 170 5 8 12 22 15 30 13 34 23 58 44 105 13 28 30 68 40 90 19
45 54 125 75 170 7 17 39 89 71 160 31 72 64 146 72 165 9 19 16 37 17 40 1 3
10 23 20 45 10 22 19 42 20 45 1 3 9 23 19 45 22 49 39 88 41 95 1 3 12 28 25
55 49 109 60 134 60 144 0 6 5 11 10 11 6 0 10 7 10 16 0 8 11 39 24 67 51
110 86 189 86 192 0 2 13 32 29 67 45 99 90 198 90 201 0 16 41 92 46 85 1 -2
39 -86 85 -188z"/>
</g>
</svg>
